{"title":"Kamli - Full Video Song HD 1080p - DHOOM 3 -AshishRocks- { DAKU","uid":9472822,"size":123297302,"categoryP":"video","categoryS":"music_videos","magnet":"?xt=urn:btih:35a85010132d37ab70e5f763b937bf6f84139d35&amp;dn=Kamli+-+Full+Video+Song+HD+1080p+-+DHOOM+3+-AshishRocks-+%7B+DAKU+&amp;tr=udp%3A%2F%2Ftracker.openbittorrent.com%3A80&amp;tr=udp%3A%2F%2Fopen.demonii.com%3A1337&amp;tr=udp%3A%2F%2Ftracker.coppersurfer.tk%3A6969&amp;tr=udp%3A%2F%2Fexodus.desync.com%3A6969","seeders":5,"leechers":1,"uploader":"ashish.p","files":1,"time":1389621935,"description":"\n\nGeneral\n\nComplete name : Kamli - Full Video Song HD 1080p - DHOOM 3 -AshishRocks- { DAKU RG }\nFormat : MPEG-4\nFormat profile : Base Media\nCodec ID : isom\nFile size :\t118 MiB\nDuration :\t 3mn 59s\nOverall bit rate mode : Variable\nOverall bit rate : 4 110 Kbps\nEncoded date : UTC 2014-01-12 11:07:25\nTagged date :\tUTC 2014-01-12 11:07:25\n\nVideo\n\nID :\t1\nFormat :\tAVC\nFormat/Info : Advanced Video Codec\nFormat profile : &lt;a class=&quot;__cf_email__&quot; href=&quot;/cdn-cgi/l/email-protection&quot; data-cfemail=&quot;fbb3929c93bbb7cfd5cb&quot;&gt;[email&amp;#160;protected]&lt;/a&gt;&lt;script cf-hash='f9e31' type=&quot;text/javascript&quot;&gt;\n/* &lt;![CDATA[ */!function(){try{var t=&quot;currentScript&quot;in document?document.currentScript:function(){for(var t=document.getElementsByTagName(&quot;script&quot;),e=t.length;e--;)if(t[e].getAttribute(&quot;cf-hash&quot;))return t[e]}();if(t&amp;&amp;t.previousSibling){var e,r,n,i,c=t.previousSibling,a=c.getAttribute(&quot;data-cfemail&quot;);if(a){for(e=&quot;&quot;,r=parseInt(a.substr(0,2),16),n=2;a.length-n;n+=2)i=parseInt(a.substr(n,2),16)^r,e+=String.fromCharCode(i);e=document.createTextNode(e),c.parentNode.replaceChild(e,c)}}}catch(u){}}();/* ]]&gt; */&lt;/script&gt;\nFormat settings, CABAC :\tYes\nFormat settings, ReFrames : 2 frames\nCodec ID : avc1\nCodec ID/Info : Advanced Video Coding\nDuration :\t3mn 59s\nBit rate : 3 983 Kbps\nWidth : 1 920 pixels\nHeight : 1 080 pixels\nDisplay aspect ratio : 16:9\nFrame rate mode :\tConstant\nFrame rate : 24.000 fps\nColor space : YUV\nChroma subsampling : 4:2:0\nBit depth : 8 bits\nScan type : Progressive\nBits/(Pixel*Frame) :\t0.080\nStream size : 114 MiB (97%)\nEncoded date : UTC 2014-01-12 11:07:25\nTagged date :\tUTC 2014-01-12 11:07:25\n\nAudio\n\nID :\t2\nFormat :\tAAC\nFormat/Info :\tAdvanced Audio Codec\nFormat profile : LC\nCodec ID : 40\nDuration :\t 3mn 59s\nBit rate mode :\tVariable\nBit rate : 126 Kbps\nChannel(s) : 2 channels\nChannel positions :\tFront: L R\nSampling rate : 44.1 KHz\nCompression mode : Lossy\nStream size : 3.59 MiB (3%)\nEncoded date : UTC 2014-01-12 11:07:12\nTagged date :\tUTC 2014-01-12 11:07:12\n","torrent":{"xt":"urn:btih:35a85010132d37ab70e5f763b937bf6f84139d35","amp;dn":"Kamli+-+Full+Video+Song+HD+1080p+-+DHOOM+3+-AshishRocks-+%7B+DAKU+","amp;tr":["udp%3A%2F%2Ftracker.openbittorrent.com%3A80","udp%3A%2F%2Fopen.demonii.com%3A1337","udp%3A%2F%2Ftracker.coppersurfer.tk%3A6969","udp%3A%2F%2Fexodus.desync.com%3A6969"],"infoHash":"35a85010132d37ab70e5f763b937bf6f84139d35","infoHashBuffer":{"type":"Buffer","data":[53,168,80,16,19,45,55,171,112,229,247,99,185,55,191,111,132,19,157,53]},"announce":[],"urlList":[]}}